<svg width="1618" height="728" viewBox="0 0 1618 728" fill="none" xmlns="http://www.w3.org/2000/svg">
<path d="M684.74 488.291C748.139 434.669 841.557 484.266 834.123 565.819C829.509 616.48 783.445 652.124 733.524 646.089C713.413 643.658 700.706 637.162 685.008 625.055C684.673 642.897 685.591 661.229 685.292 679.121C685.157 687.207 685.535 697.377 684.606 705.322C681.968 708.898 680.867 710.51 677.466 713.48C667.684 715.018 656.855 715.659 654.763 703.029C654.706 702.673 654.657 702.318 654.615 701.96C654.409 697.321 655.769 692.099 656.04 687.155C656.485 679.054 656.374 671.165 656.379 663.056L656.347 565.778C656.379 534.93 656.779 509.507 654.928 478.844C655.922 472.046 663.211 468.551 668.926 466.408C676.009 468.683 677.303 469.253 682.942 474.548C684.517 479.859 684.767 482.678 684.74 488.291ZM753.914 615.458C786.166 610.04 807.988 579.573 802.742 547.276C797.504 514.979 767.167 492.986 734.858 498.058C702.306 503.169 680.12 533.799 685.403 566.341C690.685 598.883 721.417 620.916 753.914 615.458Z" fill="white"></path>
<path d="M1022.43 201.775C1039.19 202.155 1054.35 204.548 1069.52 212.648C1073.43 214.728 1080.91 220.868 1084.91 221.99C1086.08 215.897 1086.4 213.032 1089.59 207.754L1089.82 207.376C1102.09 200.04 1108.76 203.659 1116.32 214.158L1116.33 321.395C1116.33 336.309 1116.75 353.112 1116.06 367.969C1115.49 380.491 1098.18 385.808 1089.92 375.62C1084.93 369.464 1085.89 367.546 1086.01 359.688C1078.49 366.756 1071.73 370.724 1062.67 375.476C1060.85 377.286 1042.84 381.059 1039.57 381.554C1016.04 385.282 991.997 379.393 972.854 365.212C918.373 324.684 924.773 242.314 985.424 211.577C998.657 204.87 1008.01 203.821 1022.43 201.775ZM1031.4 351.336C1064.13 348.517 1088.38 319.673 1085.55 286.922C1082.72 254.17 1053.88 229.918 1021.15 232.763C988.434 235.606 964.211 264.439 967.04 297.173C969.868 329.906 998.673 354.153 1031.4 351.336ZM1114.27 354.368C1114.72 353.068 1115.2 350.975 1115.07 349.652C1113.68 334.691 1117.7 238.042 1113.12 231.144C1113.12 241.59 1112.6 352.06 1113.59 354.224L1114.27 354.368Z" fill="white"></path>
<path d="M1113.12 231.144C1117.7 238.042 1113.68 334.691 1115.07 349.652C1115.19 350.975 1114.72 353.068 1114.27 354.368L1113.59 354.224C1112.6 352.06 1113.12 241.59 1113.12 231.144Z" fill="white"></path>
<path d="M1308.29 466.536C1332.05 465.819 1345.69 466.042 1367.36 479.103C1372.04 481.922 1376.12 485.392 1380.9 488.457L1380.88 487.535C1380.64 477.868 1381.13 476.057 1387.67 469.203L1396.49 466.524C1404.03 469.523 1405.11 470.659 1410.45 476.693C1412.43 510.362 1410.05 545.706 1410.95 579.748C1411.33 594.178 1411.5 619.467 1410.18 633.694C1408.95 646.975 1390.52 650.745 1381.19 635.44L1380.56 624.337C1374.23 628.912 1370.29 632.613 1363.29 636.323C1360.12 639.009 1347.3 643.111 1342.96 644.144C1263.72 662.983 1201.93 578.666 1243.8 508.956C1258.85 483.906 1280.88 472.695 1308.29 466.536ZM1324.51 615.854C1357.1 613.945 1382.06 586.121 1380.46 553.501C1378.85 520.881 1351.28 495.648 1318.65 496.955C1285.61 498.278 1259.99 526.312 1261.61 559.361C1263.24 592.41 1291.49 617.787 1324.51 615.854Z" fill="white"></path>
<path d="M710.315 202.886C729.259 206.308 742.635 211.288 757.481 224.588C757.516 221.082 757.445 216.603 757.635 213.184C762.113 207.303 764.174 204.95 771.946 203.741C780.396 202.426 787.102 209.276 787.234 217.434C788.056 268.74 786.528 320.325 787.643 371.615C778.094 383.513 767.139 385.553 757.745 371.833L756.768 360.738C692.631 413.931 599.486 364.111 608.259 281.507C610.892 256.721 622.519 236.96 641.631 221.175C651.687 212.953 668.374 204.452 681.664 203.935C687.864 204.844 704.273 204.599 710.315 202.886ZM702.749 351.402C735.571 348.618 759.895 319.695 757.024 286.863C754.154 254.031 725.181 229.773 692.374 232.733C659.691 235.681 635.556 264.537 638.416 297.244C641.275 329.951 670.051 354.175 702.749 351.402Z" fill="white"></path>
<path d="M639.438 287.474C640.945 291.267 640.558 293.301 639.882 297.217L639.382 297.156C638.541 294.276 639.153 290.54 639.438 287.474Z" fill="white"></path>
<path d="M931.14 466.522C937.35 466.376 944.192 466.062 950.323 466.349C986.443 468.084 1020.38 494.511 1031.14 529.057C1034.33 539.304 1034.53 547.846 1034.13 558.456L1025.25 567.119C1017.02 569.108 987.763 568.397 977.089 568.393L885.334 568.409C888.186 576.729 890.517 583.851 895.834 591.012C915.972 618.149 953.601 624.394 980.81 604.057C1003.03 580.407 1024.8 607.438 1004.08 625.017C963.303 659.607 899.594 652.06 869.399 607.34C845.587 572.063 849.98 519.776 882.071 490.87C898.235 476.109 910.805 471.605 931.14 466.522ZM886.772 537.481C907.107 536.643 929.513 537.063 950.022 537.088C956.232 537.107 996.019 537.671 999.629 536.663L1000.67 535.369C1000.21 531.442 990.804 518.983 987.881 515.74C974.466 500.844 958.626 497.182 939.365 497.562C924.22 498.498 910.07 505.412 900.021 516.784C893.693 523.884 891.093 529.195 886.772 537.481Z" fill="white"></path>
<path d="M397.664 466.557C403.323 466.275 409.544 466.17 415.208 466.294C459.002 467.274 499.885 506.259 500.707 550.49C500.876 559.611 497.327 561.448 491.225 567.265C483.18 569.033 454.789 568.402 444.433 568.397L351.277 568.403C360.305 594.222 374.601 611.445 403.737 615.589C418.28 617.658 434.382 613.773 445.998 604.512C449.141 602.488 451.68 598.898 454.611 597.07C461.457 593.03 470.416 593.366 475.101 600.443C479.379 606.908 478.796 610.528 477.578 617.561C463.248 630.992 452.588 639.44 432.88 644.178C353.892 663.154 292.793 580.051 332.652 510.035C347.127 484.608 370.436 473.01 397.664 466.557ZM352.681 537.526C372.09 536.563 394.702 537.063 414.375 537.088C421.676 537.113 461.219 537.747 466.18 536.542C466.905 534.26 466.177 534.135 465.098 531.905C453.723 508.376 432.691 496.467 406.879 497.561C377.963 499.594 365.86 513.765 352.681 537.526Z" fill="white"></path>
<path d="M393.962 203.929C404.877 204.745 415.939 203.856 426.811 204.007C427.251 204 428.029 204 428.431 204.06C466.569 209.745 500.388 247.477 500.745 286.277C500.81 293.306 496.877 298.161 491.934 302.499C480.137 304.086 455.388 303.376 442.601 303.372L351.335 303.435C356.159 319.433 361.674 330.486 376.194 340.626C395.323 353.985 420.858 354.971 441.415 343.737C447.096 340.633 452.768 332.046 459.694 330.815C467.606 328.914 477.903 333.128 478.117 342.492C478.679 367.21 437.524 380.337 419.07 382.204C395.151 384.588 371.269 377.324 352.724 362.022C314.651 330.657 309.431 272.194 340.715 234.638C353.407 219.401 373.937 205.739 393.962 203.929ZM353.122 272.94C373.18 272.151 395.711 272.625 415.956 272.649C432.148 272.669 451.748 273.202 467.667 272.59C458.234 253.716 450.056 243.261 429.285 235.443C423.128 233.126 412.614 231.931 406.073 232.64C387.292 235.531 374.8 241.059 362.592 256.768C358.073 262.583 356.623 267.283 353.122 272.94Z" fill="white"></path>
<path d="M50.1369 132.948C72.8453 132.067 99.0368 132.184 121.497 133.172C151.412 137.048 153.613 163.982 151.771 187.361C149.354 218.04 163.037 253.322 123.434 262.777C111.221 266.371 68.5617 261.741 53.7827 263.309C43.8147 264.366 24.6005 250.712 23.5441 240.292C21.051 215.7 22.7858 187.861 22.744 162.865C22.7635 145.022 35.5137 137.574 50.1369 132.948Z" fill="white"></path>
<path d="M1503.43 466.579C1541.77 462.603 1578.83 483.48 1589.27 522.254C1591.64 532.779 1591.04 544.133 1590.81 554.904C1590.25 580.384 1591.13 605.889 1590.78 631.33C1590.66 638.896 1582.24 646.746 1574.49 645.399C1567.5 644.181 1564.7 640.261 1560.68 634.967C1559.93 628.153 1560.3 614.707 1560.33 607.486L1560.47 559.869C1560.49 552.166 1561.29 539.899 1559.43 532.74C1553.95 511.641 1537.69 498.971 1516.76 497.105C1503.14 497.17 1490.63 498.471 1480.4 508.426C1466.16 522.269 1468.64 543.875 1468.56 561.899C1468.67 583.669 1468.72 605.429 1468.93 627.199C1469.05 640.834 1456.57 651.85 1444.7 642.105C1442.46 640.265 1440.79 638.338 1438.91 636.144C1438.47 632.261 1438.35 627.968 1438.35 624.052C1438.34 577.779 1438.09 531.488 1438.44 485.22C1438.53 473.059 1442.76 469.707 1454.25 466.649C1467.5 470.81 1462.18 471.622 1469.4 479.241C1472.17 479.02 1474.66 476.068 1478.03 474.598C1487.45 470.484 1493.28 468.383 1503.43 466.579Z" fill="white"></path>
<path d="M200.995 22.9685C213.904 22.3583 226.738 22.9794 239.92 22.8042C255.938 21.874 285.469 21.0968 289.427 42.7238C292.904 61.7271 290.687 92.8799 290.778 113.104C290.835 125.848 279.432 135.199 267.678 138.4C254.392 139.039 201.502 140.542 192.232 135.699C185.415 132.137 180.286 126.878 178 119.496C173.868 106.15 173.329 49.4404 179.878 37.4064C184.45 29.0052 192.352 25.6018 200.995 22.9685Z" fill="white"></path>
<path d="M923.233 338.512C922.411 348.933 918.627 357.619 911.603 365.3C888.036 391.063 840.942 387.762 815.582 366.54C807.997 360.198 805.256 349.079 812.422 341.667C823.411 330.283 839.496 345.342 850.209 349.409C856.656 351.926 862.344 353.496 869.668 353.165C876.707 352.868 883.328 349.733 888.021 344.474C894.42 337.243 890.904 326.218 884.552 320.299C861.175 298.519 810.944 292.671 809.412 252.862C807.373 200.062 879.093 186.264 912.512 217.714C922.261 226.886 921.921 243.575 906.673 243.886C892.089 244.043 880.081 230.758 865.275 231.808C861.775 232.167 853.48 233.203 850.723 235.322C821.547 257.778 878.398 279.097 889.925 285.773C913.539 299.454 921.605 309.222 923.675 334.493L923.233 338.512Z" fill="white"></path>
<path d="M518.277 468.872C522.413 468.473 529.474 468.442 532.414 471.352C540.143 479.002 562.93 521.151 569.07 526.091C582.948 522.449 596.656 454.516 627.228 472.379C635.25 486.356 629.709 490.457 622.544 502.872C612.198 520.796 597.282 539.421 587.678 557.425C601.495 576.837 613.725 598.16 626.798 618.116C633.926 628.998 632.935 638.489 621.279 645.014C613.382 645.313 612.197 645.157 605.222 641.518C600.509 634.892 595.049 625.773 590.455 618.744C583.46 608.045 575.771 597.189 570.589 585.584C561.263 596.265 551.98 614.724 543.813 626.914C539.416 633.478 534.371 643.107 526.166 644.845C522.161 645.697 517.983 644.914 514.559 642.669C499.05 632.584 515.51 613.259 522.218 602.598C531.886 587.269 541.663 572.01 551.548 556.822C539.125 538.1 527.324 518.876 515.068 500.041C506.473 486.833 503.136 478.247 518.277 468.872Z" fill="white"></path>
<path d="M240.471 200.934C258.713 199.028 277.855 204.709 293.069 216.803C303.19 224.848 305.939 238.659 290.625 244.058C280.831 247.51 258.307 229.066 245.734 231.617C239.936 232.793 232.973 233.848 228.443 239.086C216.133 255.325 237.839 267.947 248.557 273.477C274.694 286.964 303.656 297.909 304.976 331.632C306.323 366.029 279.274 382.593 248.003 383.504C229.82 383.198 216.434 379.329 200.855 369.335C192.045 363.683 187.078 349.965 193.76 341.456C204.695 330.253 223.839 346.488 235.165 350.833C249.425 356.303 278.33 351.181 272.744 331.436C267.002 311.136 234.558 302.463 217.461 291.571C199.543 281.354 188.122 262.632 192.218 241.376C197.22 215.425 217.635 206.704 240.471 200.934Z" fill="white"></path>
<path d="M213.776 419.333C248.885 418.329 236.714 463.798 239.284 485.013C240.015 491.046 236.187 503.231 231.453 506.717C217.815 516.757 188.996 513.22 171.801 513.124C133.65 512.739 147.923 471.583 144.801 446.881C143.029 432.864 154.008 419.334 168.56 419.305C183.374 419.275 198.704 419.325 213.776 419.333Z" fill="white"></path>
<path d="M1122.38 466.554C1124.36 466.461 1126.34 466.387 1128.32 466.33C1137.4 466.076 1151.44 469.51 1150.61 480.893C1148.77 506.421 1114.67 491.461 1099.92 508.69C1085.58 525.433 1088.8 545.439 1088.82 566.168C1089 589.592 1088.97 613.017 1088.73 636.441C1083.21 642.484 1082.11 643.795 1074.28 645.883C1064.96 644.098 1064.1 642.143 1058.56 634.822C1057.35 613.76 1058.33 582.25 1058.3 560.36C1058.25 534.826 1057.38 502.036 1058.71 477.201C1064.48 470.065 1065.08 469.619 1073.69 466.439C1086.78 470.77 1081.18 470.779 1089.86 478.016C1094.64 478.43 1100.21 473.488 1105.39 471.45C1111.18 469.178 1116.4 468.009 1122.38 466.554Z" fill="white"></path>
<path d="M595.655 201.813C605.664 201.437 609.874 205.026 614.61 213.174C615.505 235.475 598.971 231.412 583.317 234.85C578.215 235.951 573.376 238.026 569.06 240.962C542.95 258.855 556.947 318.161 553.669 346.605C552.069 360.489 559 385.504 533.196 380.439C528.272 377.901 526.488 375.376 523.187 371.152C522.526 363.991 522.917 351.496 522.93 344.048L522.932 296.034L522.895 242.947C522.892 234.018 520.432 210.239 529.855 205.425C540.704 199.881 548.658 206.566 554.37 215.56C571.559 205.264 576.107 204.806 595.655 201.813Z" fill="white"></path>
<path d="M71.5808 313.261C93.8859 313.043 136.369 305.145 132.758 338.862C130.475 360.173 141.475 384.531 115.01 392.785C99.1736 392.823 75.6051 395.352 61.1028 388.986C55.7208 385.664 52.0404 373.493 52.6001 367.728C54.6687 346.424 44.0648 318.816 71.5808 313.261Z" fill="white"></path>
<path d="M1177.07 517.874C1177.32 497.295 1169.84 472.986 1192.65 466.538C1200.28 469.715 1201.69 469.894 1206.47 476.665C1208.22 528.049 1206.17 580.693 1206.45 632.166C1206.54 647.06 1181.78 652.396 1177.1 632.841L1177.07 517.874Z" fill="white"></path>
<path d="M343.584 96.5815C353.354 95.8203 374.748 96.1934 384.783 96.5191C402.719 107.158 397.972 129.198 396.612 147.281C396.2 152.767 389.421 158.664 384.717 161.208C373.767 161.975 354.217 161.674 343.195 161.195L342.904 161.016C330.394 153.229 329.906 145.725 329.965 131.728C330.024 117.414 328.049 103.409 343.584 96.5815Z" fill="white"></path>
<path d="M1186.64 410.525C1196.11 407.675 1206.15 412.744 1209.49 422.061C1211.26 426.995 1210.87 432.447 1208.41 437.076C1205.95 441.705 1201.66 445.081 1196.58 446.375C1186.78 448.872 1176.78 443.072 1174.07 433.32C1171.37 423.567 1176.95 413.44 1186.64 410.525Z" fill="white"></path>
<path d="M654.929 478.844C656.78 509.507 656.38 534.93 656.349 565.778L656.38 663.056C656.375 671.165 656.486 679.054 656.041 687.155C655.77 692.099 654.411 697.321 654.616 701.96C653.709 699.908 653.047 485.909 654.929 478.844Z" fill="white"></path>
<path d="M1177.1 632.841C1176.71 634.442 1176.68 634.517 1175.77 635.871C1173.95 633.196 1174.91 532.356 1174.42 519.807L1177.07 517.875L1177.1 632.841Z" fill="white"></path>
<path d="M393.961 203.93C404.187 201.746 416.708 200.578 426.81 204.007C415.938 203.856 404.876 204.745 393.961 203.93Z" fill="white"></path>
<path d="M681.664 203.935C692.433 201.335 699.378 201.456 710.316 202.886C704.273 204.6 687.864 204.844 681.664 203.935Z" fill="white"></path>
<path d="M923.675 334.493C924.046 332.652 924.386 330.806 924.686 328.953C925.618 332.401 926.558 336.211 924.899 339.399C924.149 339.065 923.841 339.008 923.232 338.512L923.675 334.493Z" fill="white"></path>
</svg>